Patient4_TMGait_0pt5_02_left_25_GRF.mot
version=1
nRows=26
nColumns=19
inDegrees=no
endheader
time	F1x	F1y	F1z	M1x	M1y	M1z	F2x	F2y	F2z	M2x	M2y	M2z	EC1x	EC1y	EC1z	EC2x	EC2y	EC2z
31.86	-6.5208	2.0798	-1.8968	-0.52727	-0.57809	6.1194	-47.9938	751.3451	-62.9742	285.434	68.5506	646.18	-0.0592	0.0182	-0.0073	-0.0462	0.0165	0.9585
31.8734	-4.5703	2.039	-1.2198	-0.59494	-0.4939	4.7303	-46.8588	755.1494	-63.1105	286.1951	68.9377	645.8119	-0.0592	0.0182	-0.0073	-0.0462	0.0165	0.9585
31.8867	-2.9124	1.9999	-0.68582	-0.64204	-0.39892	3.5628	-45.5948	759.6353	-63.1412	287.2066	69.0088	645.7368	-0.0592	0.0182	-0.0073	-0.0462	0.0165	0.9585
31.9001	-1.6521	1.9687	-0.30118	-0.67481	-0.31501	2.6812	-44.1958	764.8212	-63.017	288.535	68.6697	646.0852	-0.0592	0.0182	-0.0073	-0.0462	0.0165	0.9585
31.9134	-0.79721	1.9544	-0.048918	-0.70109	-0.25263	2.0881	-42.6476	770.5969	-62.7245	290.1756	67.9089	646.8134	-0.0592	0.0182	-0.0073	-0.0462	0.0165	0.9585
31.9268	-0.29454	1.9553	0.10246	-0.72586	-0.22146	1.7366	-40.9441	776.6088	-62.2522	292.0118	66.7464	647.6391	-0.0592	0.0182	-0.0073	-0.0462	0.0165	0.9585
31.9401	-0.066086	1.9573	0.18093	-0.74732	-0.22209	1.5558	-39.0871	782.2761	-61.6244	293.8203	65.2455	648.0956	-0.0592	0.0182	-0.0073	-0.0462	0.0165	0.9585
31.9535	-0.040866	1.9462	0.20936	-0.75723	-0.25011	1.4817	-37.06	786.8702	-60.8774	295.3094	63.475	647.6084	-0.0592	0.0182	-0.0073	-0.0462	0.0165	0.9585
31.9669	-0.14098	1.8782	0.20904	-0.73873	-0.29754	1.4177	-34.8477	789.6264	-60.064	296.1726	61.5114	645.5744	-0.0592	0.0182	-0.0073	-0.0462	0.0165	0.9585
31.9802	-0.3257	1.6907	0.19465	-0.67055	-0.36043	1.2803	-32.4128	789.8635	-59.2268	296.1408	59.4078	641.453	-0.0592	0.0182	-0.0073	-0.0462	0.0165	0.9585
31.9936	-0.5502	1.315	0.17449	-0.52807	-0.43084	0.97766	-29.6901	787.092	-58.3917	295.0276	57.1892	634.8453	-0.0592	0.0182	-0.0073	-0.0462	0.0165	0.9585
32.0069	-0.78291	0.68097	0.15379	-0.283	-0.50003	0.44113	-26.6257	781.1032	-57.5504	292.762	54.8467	625.5715	-0.0592	0.0182	-0.0073	-0.0462	0.0165	0.9585
32.0203	-0.98063	-0.27975	0.13458	0.08937	-0.55205	-0.39876	-23.1549	772.0299	-56.6649	289.412	52.3421	613.6881	-0.0592	0.0182	-0.0073	-0.0462	0.0165	0.9585
32.0336	-1.0826	-1.5999	0.11685	0.60068	-0.56594	-1.5788	-19.2342	760.4234	-55.6939	285.2072	49.6385	599.5769	-0.0592	0.0182	-0.0073	-0.0462	0.0165	0.9585
32.047	-1.0124	-3.2454	0.097402	1.2381	-0.51186	-3.0649	-14.8316	747.2371	-54.6118	280.5294	46.7114	583.9285	-0.0592	0.0182	-0.0073	-0.0462	0.0165	0.9585
32.0604	-0.65262	-5.0746	0.070831	1.9455	-0.34234	-4.7371	-9.9558	733.6964	-53.4314	275.8575	43.575	567.6582	-0.0592	0.0182	-0.0073	-0.0462	0.0165	0.9585
32.0737	0.12471	-6.7619	0.031929	2.5977	-0.0033023	-6.3035	-4.6689	721.1567	-52.1977	271.705	40.2791	551.8101	-0.0592	0.0182	-0.0073	-0.0462	0.0165	0.9585
32.0871	1.4588	-7.744	-0.033317	2.9767	0.57138	-7.2585	0.94535	710.9089	-51.0079	268.5479	36.9143	537.3987	-0.0592	0.0182	-0.0073	-0.0462	0.0165	0.9585
32.1004	3.4595	-7.1543	-0.1368	2.7481	1.4344	-6.8124	6.7606	703.9964	-49.9912	266.7512	33.6028	525.2999	-0.0592	0.0182	-0.0073	-0.0462	0.0165	0.9585
32.1138	6.1659	-3.7854	-0.29019	1.4458	2.6129	-3.8652	12.6266	700.9737	-49.278	266.4796	30.4804	516.0569	-0.0592	0.0182	-0.0073	-0.0462	0.0165	0.9585
32.1271	9.4698	3.8703	-0.495	-1.5112	4.0656	2.9654	18.3263	701.7361	-48.9537	267.6332	27.677	509.7862	-0.0592	0.0182	-0.0073	-0.0462	0.0165	0.9585
32.1405	13.0209	17.4852	-0.74969	-6.7685	5.6514	15.235	23.582	705.3872	-49.0412	269.8021	25.31	506.066	-0.0592	0.0182	-0.0073	-0.0462	0.0165	0.9585
32.1539	16.1155	38.6204	-1.0278	-14.9241	7.066	34.4083	28.0678	710.2574	-49.4768	272.2813	23.4622	503.9283	-0.0592	0.0182	-0.0073	-0.0462	0.0165	0.9585
32.1672	17.6187	68.2833	-1.276	-26.3603	7.8173	61.4695	31.4478	714.0939	-50.1093	274.1525	22.1729	501.9945	-0.0592	0.0182	-0.0073	-0.0462	0.0165	0.9585
32.1806	16.1383	106.4246	-1.4068	-41.051	7.2891	96.4551	33.4813	714.3825	-50.6982	274.425	21.3919	498.6437	-0.0592	0.0182	-0.0073	-0.0462	0.0165	0.9585
32.1939	10.9109	151.8459	-1.2656	-58.5213	5.0533	138.3537	34.082	708.7832	-50.9626	272.2077	20.9806	492.2948	-0.0592	0.0182	-0.0073	-0.0462	0.0165	0.9585
